<svg width="21" height="20" viewBox="0 0 21 20" fill="none" xmlns="http://www.w3.org/2000/svg">
<path d="M11.2393 4.375C11.2393 4.02982 10.9594 3.75 10.6143 3.75C10.2691 3.75 9.98926 4.02982 9.98926 4.375V9.375H4.98926C4.64408 9.375 4.36426 9.65482 4.36426 10C4.36426 10.3452 4.64408 10.625 4.98926 10.625H9.98926V15.625C9.98926 15.9702 10.2691 16.25 10.6143 16.25C10.9594 16.25 11.2393 15.9702 11.2393 15.625V10.625H16.2393C16.5844 10.625 16.8643 10.3452 16.8643 10C16.8643 9.65482 16.5844 9.375 16.2393 9.375H11.2393V4.375Z" fill="#F6F7F9"/>
</svg>
