<svg width="21" height="20" viewBox="0 0 21 20" fill="none" xmlns="http://www.w3.org/2000/svg">
<path fill-rule="evenodd" clip-rule="evenodd" d="M8.93723 4.22693L8.14906 6.35692C7.9275 6.95568 7.45541 7.42777 6.85665 7.64933L4.72665 8.4375L6.85665 9.22567C7.45541 9.44723 7.9275 9.91932 8.14906 10.5181L8.93723 12.6481L9.7254 10.5181C9.94696 9.91932 10.419 9.44723 11.0178 9.22567L13.1478 8.4375L11.0178 7.64933C10.419 7.42777 9.94696 6.95568 9.7254 6.35692L8.93723 4.22693ZM9.81646 3.0011C9.51444 2.18489 8.36001 2.18489 8.05799 3.0011L6.97674 5.92313C6.88179 6.17974 6.67947 6.38206 6.42285 6.47702L3.50083 7.55826C2.68462 7.86029 2.68462 9.01471 3.50083 9.31674L6.42285 10.398C6.67947 10.4929 6.88179 10.6953 6.97674 10.9519L8.05799 13.8739C8.36001 14.6901 9.51444 14.6901 9.81646 13.8739L10.8977 10.9519C10.9927 10.6953 11.195 10.4929 11.4516 10.398L14.3736 9.31674C15.1898 9.01471 15.1898 7.86029 14.3736 7.55826L11.4516 6.47702C11.195 6.38206 10.9927 6.17974 10.8977 5.92313L9.81646 3.0011Z" fill="#1C1C1C"/>
<path fill-rule="evenodd" clip-rule="evenodd" d="M15.1871 12.7015L14.9 13.4773C14.7418 13.905 14.4046 14.2422 13.9769 14.4004L13.2011 14.6875L13.9769 14.9746C14.4046 15.1329 14.7418 15.4701 14.9 15.8978L15.1871 16.6736L15.4742 15.8978C15.6324 15.4701 15.9696 15.1329 16.3973 14.9746L17.1732 14.6875L16.3973 14.4004C15.9696 14.2422 15.6324 13.905 15.4742 13.4773L15.1871 12.7015ZM15.7733 11.5841C15.5719 11.04 14.8023 11.04 14.6009 11.5841L14.0208 13.152C13.9575 13.323 13.8226 13.4579 13.6515 13.5212L12.0837 14.1014C11.5395 14.3027 11.5395 15.0723 12.0837 15.2737L13.6515 15.8538C13.8226 15.9172 13.9575 16.052 14.0208 16.2231L14.6009 17.791C14.8023 18.3351 15.5719 18.3351 15.7733 17.791L16.3534 16.2231C16.4167 16.052 16.5516 15.9172 16.7227 15.8538L18.2905 15.2737C18.8347 15.0723 18.8347 14.3027 18.2905 14.1014L16.7227 13.5212C16.5516 13.4579 16.4167 13.323 16.3534 13.152L15.7733 11.5841Z" fill="#1C1C1C"/>
</svg>
